<?xml version="1.0" encoding="UTF-8" standalone="no"?>
<!DOCTYPE svg PUBLIC "-//W3C//DTD SVG 1.1//EN" "http://www.w3.org/Graphics/SVG/1.1/DTD/svg11.dtd">
<svg xmlns="http://www.w3.org/2000/svg" version="1.1" viewBox="0.00 0.00 279.00 400.00">
<g stroke-width="2.00" fill="none" stroke-linecap="butt">
<path stroke="#80dbf1" vector-effect="non-scaling-stroke" d="
  M 239.74 219.51
  Q 246.86 205.34 255.95 189.12
  C 263.16 176.24 267.68 164.13 269.21 149.97
  C 273.14 113.67 259.78 77.29 236.36 49.68
  Q 214.26 23.63 182.72 13.39
  Q 151.95 3.40 120.87 6.98
  C 95.52 9.90 72.04 22.23 53.32 39.89
  Q 29.24 62.64 17.84 94.03
  Q 5.78 127.22 13.59 160.87
  C 18.00 179.91 27.84 197.02 37.26 213.95
  C 44.32 226.64 48.14 232.54 50.41 242.97
  C 51.77 249.24 51.58 255.54 51.84 261.96
  C 52.36 274.63 57.40 287.71 68.51 294.40
  C 71.59 296.26 75.43 297.94 76.62 301.71
  C 78.48 307.60 79.26 313.64 78.32 319.74
  C 77.78 323.25 76.45 330.01 77.93 333.27
  Q 81.74 341.64 82.00 345.11
  Q 82.33 349.46 82.56 353.83
  Q 83.06 363.01 89.67 369.13
  C 94.97 374.04 101.45 376.42 107.76 379.41
  C 113.73 382.25 117.37 388.27 123.84 391.14
  C 142.93 399.58 165.08 390.65 174.15 371.53
  Q 175.75 368.15 178.81 366.47
  C 185.90 362.57 192.84 358.36 195.63 350.49
  C 196.98 346.68 197.19 340.97 197.56 336.48
  C 197.96 331.71 199.98 327.68 201.36 323.24
  Q 203.37 316.81 202.82 311.04
  C 202.73 310.05 202.95 308.87 203.64 308.11
  C 213.72 296.87 225.88 286.20 226.94 269.96
  Q 227.32 264.15 227.41 257.74
  C 227.59 245.07 233.81 231.32 239.74 219.51"
/>
<path stroke="#80dbf1" vector-effect="non-scaling-stroke" d="
  M 190.07 255.08
  C 188.74 265.76 184.35 276.73 172.49 278.89
  Q 138.86 285.01 104.77 291.11
  C 98.11 292.31 92.75 299.46 96.00 306.06
  C 97.54 309.18 100.93 310.34 104.27 309.75
  Q 139.99 303.40 179.91 296.07
  C 196.56 293.01 205.85 277.79 207.93 261.88
  C 208.77 255.39 209.17 248.69 210.12 242.38
  Q 212.35 227.59 221.70 210.95
  Q 231.36 193.75 234.55 188.55
  C 254.87 155.38 253.89 114.57 234.17 81.37
  C 221.49 60.02 202.41 43.33 179.37 33.32
  Q 171.41 29.86 164.71 27.87
  Q 158.17 25.92 149.89 25.33
  Q 116.45 22.91 88.16 38.18
  C 59.73 53.54 37.24 81.31 30.61 113.21
  Q 23.16 149.05 40.58 181.66
  Q 48.68 196.82 56.62 211.14
  Q 65.86 227.81 69.40 250.29
  C 70.25 255.70 75.03 261.39 80.94 261.17
  C 86.37 260.97 88.22 255.77 88.04 251.03
  C 87.62 239.60 86.38 229.93 81.90 219.56
  C 76.29 206.58 69.25 195.02 62.19 182.60
  Q 59.42 177.72 56.69 171.95
  C 47.92 153.44 46.39 133.30 51.22 113.24
  Q 59.23 79.90 88.44 60.04
  C 107.43 47.12 132.48 41.15 154.89 45.64
  Q 187.14 52.10 208.23 76.83
  C 233.28 106.22 237.10 146.96 217.05 180.03
  C 207.73 195.39 197.37 212.28 193.51 229.63
  C 191.69 237.85 191.12 246.59 190.07 255.08"
/>
<path stroke="#80dbf1" vector-effect="non-scaling-stroke" d="
  M 75.25 102.45
  C 70.99 112.02 63.54 134.34 73.01 141.97
  C 76.70 144.94 82.63 144.52 85.27 140.30
  Q 86.98 137.56 87.57 133.46
  C 89.74 118.39 93.22 104.47 105.78 94.51
  C 113.27 88.57 122.21 84.61 131.66 83.44
  C 137.33 82.74 142.76 82.41 147.06 78.14
  C 152.33 72.91 148.54 66.01 142.46 64.14
  Q 136.02 62.16 127.61 63.63
  C 104.97 67.60 84.65 81.31 75.25 102.45"
/>
<path stroke="#80dbf1" vector-effect="non-scaling-stroke" d="
  M 183.16 315.86
  C 185.74 309.86 182.34 302.98 175.02 304.29
  Q 139.85 310.60 104.69 316.97
  Q 99.30 317.95 96.58 323.14
  C 93.62 328.78 96.77 336.71 104.14 335.39
  Q 139.43 329.03 174.30 322.75
  Q 180.69 321.60 183.16 315.86"
/>
<path stroke="#80dbf1" vector-effect="non-scaling-stroke" d="
  M 111.38 340.47
  C 104.63 341.65 98.98 349.68 103.45 356.01
  Q 106.14 359.81 111.28 358.87
  Q 137.88 354.00 164.17 349.53
  C 169.12 348.69 173.03 347.74 175.56 342.74
  Q 177.49 338.93 176.14 335.12
  C 174.62 330.85 170.81 329.92 166.76 330.65
  Q 138.83 335.64 111.38 340.47"
/>
<path stroke="#80dbf1" vector-effect="non-scaling-stroke" d="
  M 150.86 371.71
  C 154.45 369.72 162.03 363.83 161.69 359.50
  A 1.81 1.80 -87.6 0 0 160.19 357.86
  Q 157.42 357.39 154.80 357.87
  Q 140.26 360.54 124.11 363.59
  A 1.34 1.33 68.8 0 0 123.23 365.60
  C 129.44 375.77 140.91 377.22 150.86 371.71"
/>
</g>
<path fill="#ffffff" d="
  M 0.00 0.00
  L 279.00 0.00
  L 279.00 400.00
  L 0.00 400.00
  L 0.00 0.00
  Z
  M 239.74 219.51
  Q 246.86 205.34 255.95 189.12
  C 263.16 176.24 267.68 164.13 269.21 149.97
  C 273.14 113.67 259.78 77.29 236.36 49.68
  Q 214.26 23.63 182.72 13.39
  Q 151.95 3.40 120.87 6.98
  C 95.52 9.90 72.04 22.23 53.32 39.89
  Q 29.24 62.64 17.84 94.03
  Q 5.78 127.22 13.59 160.87
  C 18.00 179.91 27.84 197.02 37.26 213.95
  C 44.32 226.64 48.14 232.54 50.41 242.97
  C 51.77 249.24 51.58 255.54 51.84 261.96
  C 52.36 274.63 57.40 287.71 68.51 294.40
  C 71.59 296.26 75.43 297.94 76.62 301.71
  C 78.48 307.60 79.26 313.64 78.32 319.74
  C 77.78 323.25 76.45 330.01 77.93 333.27
  Q 81.74 341.64 82.00 345.11
  Q 82.33 349.46 82.56 353.83
  Q 83.06 363.01 89.67 369.13
  C 94.97 374.04 101.45 376.42 107.76 379.41
  C 113.73 382.25 117.37 388.27 123.84 391.14
  C 142.93 399.58 165.08 390.65 174.15 371.53
  Q 175.75 368.15 178.81 366.47
  C 185.90 362.57 192.84 358.36 195.63 350.49
  C 196.98 346.68 197.19 340.97 197.56 336.48
  C 197.96 331.71 199.98 327.68 201.36 323.24
  Q 203.37 316.81 202.82 311.04
  C 202.73 310.05 202.95 308.87 203.64 308.11
  C 213.72 296.87 225.88 286.20 226.94 269.96
  Q 227.32 264.15 227.41 257.74
  C 227.59 245.07 233.81 231.32 239.74 219.51
  Z"
/>
<path fill="#01b7e2" d="
  M 239.74 219.51
  C 233.81 231.32 227.59 245.07 227.41 257.74
  Q 227.32 264.15 226.94 269.96
  C 225.88 286.20 213.72 296.87 203.64 308.11
  C 202.95 308.87 202.73 310.05 202.82 311.04
  Q 203.37 316.81 201.36 323.24
  C 199.98 327.68 197.96 331.71 197.56 336.48
  C 197.19 340.97 196.98 346.68 195.63 350.49
  C 192.84 358.36 185.90 362.57 178.81 366.47
  Q 175.75 368.15 174.15 371.53
  C 165.08 390.65 142.93 399.58 123.84 391.14
  C 117.37 388.27 113.73 382.25 107.76 379.41
  C 101.45 376.42 94.97 374.04 89.67 369.13
  Q 83.06 363.01 82.56 353.83
  Q 82.33 349.46 82.00 345.11
  Q 81.74 341.64 77.93 333.27
  C 76.45 330.01 77.78 323.25 78.32 319.74
  C 79.26 313.64 78.48 307.60 76.62 301.71
  C 75.43 297.94 71.59 296.26 68.51 294.40
  C 57.40 287.71 52.36 274.63 51.84 261.96
  C 51.58 255.54 51.77 249.24 50.41 242.97
  C 48.14 232.54 44.32 226.64 37.26 213.95
  C 27.84 197.02 18.00 179.91 13.59 160.87
  Q 5.78 127.22 17.84 94.03
  Q 29.24 62.64 53.32 39.89
  C 72.04 22.23 95.52 9.90 120.87 6.98
  Q 151.95 3.40 182.72 13.39
  Q 214.26 23.63 236.36 49.68
  C 259.78 77.29 273.14 113.67 269.21 149.97
  C 267.68 164.13 263.16 176.24 255.95 189.12
  Q 246.86 205.34 239.74 219.51
  Z
  M 190.07 255.08
  C 188.74 265.76 184.35 276.73 172.49 278.89
  Q 138.86 285.01 104.77 291.11
  C 98.11 292.31 92.75 299.46 96.00 306.06
  C 97.54 309.18 100.93 310.34 104.27 309.75
  Q 139.99 303.40 179.91 296.07
  C 196.56 293.01 205.85 277.79 207.93 261.88
  C 208.77 255.39 209.17 248.69 210.12 242.38
  Q 212.35 227.59 221.70 210.95
  Q 231.36 193.75 234.55 188.55
  C 254.87 155.38 253.89 114.57 234.17 81.37
  C 221.49 60.02 202.41 43.33 179.37 33.32
  Q 171.41 29.86 164.71 27.87
  Q 158.17 25.92 149.89 25.33
  Q 116.45 22.91 88.16 38.18
  C 59.73 53.54 37.24 81.31 30.61 113.21
  Q 23.16 149.05 40.58 181.66
  Q 48.68 196.82 56.62 211.14
  Q 65.86 227.81 69.40 250.29
  C 70.25 255.70 75.03 261.39 80.94 261.17
  C 86.37 260.97 88.22 255.77 88.04 251.03
  C 87.62 239.60 86.38 229.93 81.90 219.56
  C 76.29 206.58 69.25 195.02 62.19 182.60
  Q 59.42 177.72 56.69 171.95
  C 47.92 153.44 46.39 133.30 51.22 113.24
  Q 59.23 79.90 88.44 60.04
  C 107.43 47.12 132.48 41.15 154.89 45.64
  Q 187.14 52.10 208.23 76.83
  C 233.28 106.22 237.10 146.96 217.05 180.03
  C 207.73 195.39 197.37 212.28 193.51 229.63
  C 191.69 237.85 191.12 246.59 190.07 255.08
  Z
  M 75.25 102.45
  C 70.99 112.02 63.54 134.34 73.01 141.97
  C 76.70 144.94 82.63 144.52 85.27 140.30
  Q 86.98 137.56 87.57 133.46
  C 89.74 118.39 93.22 104.47 105.78 94.51
  C 113.27 88.57 122.21 84.61 131.66 83.44
  C 137.33 82.74 142.76 82.41 147.06 78.14
  C 152.33 72.91 148.54 66.01 142.46 64.14
  Q 136.02 62.16 127.61 63.63
  C 104.97 67.60 84.65 81.31 75.25 102.45
  Z
  M 183.16 315.86
  C 185.74 309.86 182.34 302.98 175.02 304.29
  Q 139.85 310.60 104.69 316.97
  Q 99.30 317.95 96.58 323.14
  C 93.62 328.78 96.77 336.71 104.14 335.39
  Q 139.43 329.03 174.30 322.75
  Q 180.69 321.60 183.16 315.86
  Z
  M 111.38 340.47
  C 104.63 341.65 98.98 349.68 103.45 356.01
  Q 106.14 359.81 111.28 358.87
  Q 137.88 354.00 164.17 349.53
  C 169.12 348.69 173.03 347.74 175.56 342.74
  Q 177.49 338.93 176.14 335.12
  C 174.62 330.85 170.81 329.92 166.76 330.65
  Q 138.83 335.64 111.38 340.47
  Z
  M 150.86 371.71
  C 154.45 369.72 162.03 363.83 161.69 359.50
  A 1.81 1.80 -87.6 0 0 160.19 357.86
  Q 157.42 357.39 154.80 357.87
  Q 140.26 360.54 124.11 363.59
  A 1.34 1.33 68.8 0 0 123.23 365.60
  C 129.44 375.77 140.91 377.22 150.86 371.71
  Z"
/>
<path fill="#ffffff" d="
  M 172.49 278.89
  C 184.35 276.73 188.74 265.76 190.07 255.08
  C 191.12 246.59 191.69 237.85 193.51 229.63
  C 197.37 212.28 207.73 195.39 217.05 180.03
  C 237.10 146.96 233.28 106.22 208.23 76.83
  Q 187.14 52.10 154.89 45.64
  C 132.48 41.15 107.43 47.12 88.44 60.04
  Q 59.23 79.90 51.22 113.24
  C 46.39 133.30 47.92 153.44 56.69 171.95
  Q 59.42 177.72 62.19 182.60
  C 69.25 195.02 76.29 206.58 81.90 219.56
  C 86.38 229.93 87.62 239.60 88.04 251.03
  C 88.22 255.77 86.37 260.97 80.94 261.17
  C 75.03 261.39 70.25 255.70 69.40 250.29
  Q 65.86 227.81 56.62 211.14
  Q 48.68 196.82 40.58 181.66
  Q 23.16 149.05 30.61 113.21
  C 37.24 81.31 59.73 53.54 88.16 38.18
  Q 116.45 22.91 149.89 25.33
  Q 158.17 25.92 164.71 27.87
  Q 171.41 29.86 179.37 33.32
  C 202.41 43.33 221.49 60.02 234.17 81.37
  C 253.89 114.57 254.87 155.38 234.55 188.55
  Q 231.36 193.75 221.70 210.95
  Q 212.35 227.59 210.12 242.38
  C 209.17 248.69 208.77 255.39 207.93 261.88
  C 205.85 277.79 196.56 293.01 179.91 296.07
  Q 139.99 303.40 104.27 309.75
  C 100.93 310.34 97.54 309.18 96.00 306.06
  C 92.75 299.46 98.11 292.31 104.77 291.11
  Q 138.86 285.01 172.49 278.89
  Z"
/>
<path fill="#ffffff" d="
  M 75.25 102.45
  C 84.65 81.31 104.97 67.60 127.61 63.63
  Q 136.02 62.16 142.46 64.14
  C 148.54 66.01 152.33 72.91 147.06 78.14
  C 142.76 82.41 137.33 82.74 131.66 83.44
  C 122.21 84.61 113.27 88.57 105.78 94.51
  C 93.22 104.47 89.74 118.39 87.57 133.46
  Q 86.98 137.56 85.27 140.30
  C 82.63 144.52 76.70 144.94 73.01 141.97
  C 63.54 134.34 70.99 112.02 75.25 102.45
  Z"
/>
<path fill="#ffffff" d="
  M 175.02 304.29
  C 182.34 302.98 185.74 309.86 183.16 315.86
  Q 180.69 321.60 174.30 322.75
  Q 139.43 329.03 104.14 335.39
  C 96.77 336.71 93.62 328.78 96.58 323.14
  Q 99.30 317.95 104.69 316.97
  Q 139.85 310.60 175.02 304.29
  Z"
/>
<path fill="#ffffff" d="
  M 103.45 356.01
  C 98.98 349.68 104.63 341.65 111.38 340.47
  Q 138.83 335.64 166.76 330.65
  C 170.81 329.92 174.62 330.85 176.14 335.12
  Q 177.49 338.93 175.56 342.74
  C 173.03 347.74 169.12 348.69 164.17 349.53
  Q 137.88 354.00 111.28 358.87
  Q 106.14 359.81 103.45 356.01
  Z"
/>
<path fill="#ffffff" d="
  M 150.86 371.71
  C 140.91 377.22 129.44 375.77 123.23 365.60
  A 1.34 1.33 68.8 0 1 124.11 363.59
  Q 140.26 360.54 154.80 357.87
  Q 157.42 357.39 160.19 357.86
  A 1.81 1.80 -87.6 0 1 161.69 359.50
  C 162.03 363.83 154.45 369.72 150.86 371.71
  Z"
/>
</svg>
