<?xml version="1.0" encoding="UTF-8" standalone="no"?>
<!DOCTYPE svg PUBLIC "-//W3C//DTD SVG 1.1//EN" "http://www.w3.org/Graphics/SVG/1.1/DTD/svg11.dtd">
<svg xmlns="http://www.w3.org/2000/svg" version="1.1" viewBox="0.00 0.00 485.00 431.00">
<g stroke-width="2.00" fill="none" stroke-linecap="butt">
<path stroke="#81dbf1" vector-effect="non-scaling-stroke" d="
  M 260.95 235.05
  Q 268.26 220.57 276.36 206.22
  Q 282.03 196.18 284.95 188.36
  C 291.57 170.61 292.47 150.43 288.99 131.91
  C 280.39 86.15 249.45 44.46 204.31 29.61
  Q 173.11 19.34 141.92 22.99
  C 89.72 29.10 45.74 74.29 34.42 124.82
  Q 26.34 160.89 40.48 195.00
  C 46.71 210.04 54.76 224.04 62.83 238.02
  C 68.12 247.20 71.88 256.30 72.39 267.00
  Q 72.70 273.58 72.93 279.11
  C 73.45 291.54 79.06 304.30 90.19 310.86
  C 93.86 313.03 96.88 314.34 98.05 319.02
  Q 99.11 323.26 99.59 327.37
  C 100.24 332.92 98.72 338.94 98.30 344.61
  C 98.02 348.46 100.23 352.29 101.63 355.74
  C 104.02 361.66 102.85 368.51 104.30 374.63
  C 106.26 382.91 114.21 389.14 122.13 392.34
  C 127.45 394.49 132.43 396.88 136.33 401.06
  C 140.69 405.73 146.42 408.46 152.82 409.66
  C 168.17 412.53 183.29 405.91 192.09 392.80
  Q 194.28 389.53 195.96 386.10
  A 6.82 6.77 88.0 0 1 198.61 383.24
  C 208.20 377.62 216.81 373.01 217.84 360.55
  Q 218.23 355.74 218.80 350.94
  C 219.32 346.53 221.49 342.48 222.69 338.10
  Q 224.39 331.84 223.79 326.56
  Q 223.63 325.23 224.59 324.17
  C 234.17 313.51 246.56 302.48 247.84 287.20
  Q 248.40 280.55 248.39 274.24
  Q 248.39 267.31 250.84 259.55
  Q 254.57 247.71 260.95 235.05"
/>
<path stroke="#808080" vector-effect="non-scaling-stroke" d="
  M 304.71 349.23
  C 306.92 329.98 297.81 316.72 278.30 315.04
  Q 267.75 314.13 255.35 316.02
  Q 254.75 316.11 254.75 316.71
  L 254.75 371.74
  Q 254.75 372.31 255.31 372.40
  C 274.67 375.75 301.76 374.93 304.71 349.23"
/>
<path stroke="#808080" vector-effect="non-scaling-stroke" d="
  M 329.25 336.15
  L 329.25 315.75
  Q 329.25 315.25 328.75 315.25
  L 316.75 315.25
  A 0.50 0.50 0.0 0 0 316.25 315.75
  L 316.25 372.50
  Q 316.25 373.00 316.75 373.00
  L 328.75 373.00
  A 0.50 0.50 0.0 0 0 329.25 372.50
  L 329.25 349.48
  Q 329.25 348.55 329.96 349.16
  C 337.57 355.66 344.03 364.02 349.78 372.50
  A 1.15 1.14 -16.9 0 0 350.73 373.00
  L 365.04 373.00
  A 0.37 0.37 0.0 0 0 365.36 372.43
  Q 354.55 354.89 340.44 342.21
  Q 340.04 341.85 340.42 341.46
  Q 352.81 328.92 363.94 315.75
  Q 364.38 315.24 363.71 315.24
  L 349.78 315.25
  A 1.65 1.62 -68.2 0 0 348.58 315.78
  L 329.69 336.32
  Q 329.25 336.81 329.25 336.15"
/>
<path stroke="#808080" vector-effect="non-scaling-stroke" d="
  M 386.62 361.75
  A 0.37 0.37 0.0 0 1 386.25 361.38
  L 386.25 315.62
  A 0.37 0.37 0.0 0 0 385.88 315.25
  L 373.62 315.25
  A 0.37 0.37 0.0 0 0 373.25 315.62
  L 373.25 372.63
  A 0.37 0.37 0.0 0 0 373.62 373.00
  L 411.13 373.00
  A 0.37 0.37 0.0 0 0 411.50 372.63
  L 411.50 362.12
  A 0.37 0.37 0.0 0 0 411.13 361.75
  L 386.62 361.75"
/>
<path stroke="#81dbf1" vector-effect="non-scaling-stroke" d="
  M 212.74 256.22
  C 211.06 270.10 211.42 291.60 193.44 294.89
  Q 161.53 300.73 126.11 307.05
  Q 123.02 307.60 120.83 309.13
  C 116.16 312.40 114.04 320.01 118.65 324.12
  Q 121.25 326.44 124.90 325.79
  Q 160.50 319.50 201.02 312.06
  Q 211.63 310.11 218.54 302.01
  C 227.85 291.11 229.41 278.35 230.39 264.41
  Q 231.34 250.85 237.36 237.72
  Q 243.55 224.21 254.08 207.23
  Q 276.17 171.62 268.35 131.49
  C 261.12 94.34 233.67 63.15 198.91 48.72
  Q 192.25 45.95 186.13 44.00
  Q 179.65 41.93 170.65 41.31
  Q 139.95 39.21 114.07 51.71
  C 83.19 66.62 58.60 95.40 51.58 129.32
  Q 44.20 164.95 61.46 197.36
  Q 68.78 211.11 76.71 225.51
  Q 87.21 244.56 90.05 264.69
  C 90.84 270.31 94.30 276.11 100.30 277.07
  C 106.01 277.98 109.09 273.27 109.02 268.15
  Q 108.85 253.94 105.95 244.02
  C 103.80 236.65 99.90 228.43 96.11 221.57
  C 88.81 208.34 80.56 195.59 74.96 181.60
  Q 69.10 166.95 69.60 149.31
  C 70.30 124.08 80.18 101.01 98.75 84.37
  Q 117.57 67.50 141.74 62.26
  C 183.74 53.16 225.18 75.99 243.03 114.46
  Q 253.16 136.30 250.21 161.78
  Q 248.16 179.43 237.65 196.70
  Q 230.36 208.67 223.63 221.28
  C 217.83 232.15 214.23 243.93 212.74 256.22"
/>
<path stroke="#81dbf1" vector-effect="non-scaling-stroke" d="
  M 113.54 95.62
  C 101.44 105.32 94.44 119.47 90.90 134.29
  C 89.12 141.71 87.10 158.40 98.58 159.78
  C 103.49 160.36 107.15 156.89 107.92 152.48
  Q 109.30 144.60 111.13 136.25
  C 115.79 115.01 133.11 101.76 154.13 99.22
  C 160.17 98.49 165.04 97.79 168.56 93.54
  C 173.37 87.74 168.80 81.50 162.55 79.88
  Q 157.25 78.50 151.63 79.22
  Q 130.69 81.88 113.54 95.62"
/>
<path stroke="#81dbf1" vector-effect="non-scaling-stroke" d="
  M 125.82 332.95
  C 114.06 335.08 112.48 353.75 126.47 351.19
  Q 161.84 344.71 194.91 338.84
  C 200.42 337.87 204.41 334.22 204.94 328.61
  C 205.47 323.13 201.45 319.29 196.01 320.27
  Q 160.81 326.62 125.82 332.95"
/>
<path stroke="#81dbf1" vector-effect="non-scaling-stroke" d="
  M 123.50 364.03
  C 121.52 369.83 125.30 376.11 131.94 374.91
  Q 160.74 369.72 187.68 365.04
  Q 194.78 363.81 197.00 357.70
  Q 198.98 352.29 195.45 348.45
  C 193.28 346.07 190.11 346.22 187.19 346.74
  Q 158.92 351.81 132.80 356.37
  C 128.28 357.16 125.01 359.62 123.50 364.03"
/>
<path stroke="#81dbf1" vector-effect="non-scaling-stroke" d="
  M 170.22 388.48
  C 174.24 386.71 182.51 380.78 182.69 375.78
  Q 182.74 374.22 181.21 373.91
  Q 178.52 373.36 176.10 373.81
  Q 160.55 376.70 145.52 379.51
  Q 144.74 379.65 144.18 380.29
  A 1.06 1.05 48.8 0 0 144.10 381.58
  Q 153.85 395.69 170.22 388.48"
/>
<path stroke="#808080" vector-effect="non-scaling-stroke" d="
  M 267.78 326.38
  L 267.72 361.70
  A 0.70 0.70 0.0 0 0 268.42 362.40
  L 275.19 362.41
  A 16.25 16.23 0.1 0 0 291.47 346.21
  L 291.47 341.95
  A 16.25 16.23 0.1 0 0 275.25 325.69
  L 268.48 325.68
  A 0.70 0.70 0.0 0 0 267.78 326.38"
/>
</g>
<path fill="#ffffff" d="
  M 0.00 0.00
  L 485.00 0.00
  L 485.00 431.00
  L 0.00 431.00
  L 0.00 0.00
  Z
  M 260.95 235.05
  Q 268.26 220.57 276.36 206.22
  Q 282.03 196.18 284.95 188.36
  C 291.57 170.61 292.47 150.43 288.99 131.91
  C 280.39 86.15 249.45 44.46 204.31 29.61
  Q 173.11 19.34 141.92 22.99
  C 89.72 29.10 45.74 74.29 34.42 124.82
  Q 26.34 160.89 40.48 195.00
  C 46.71 210.04 54.76 224.04 62.83 238.02
  C 68.12 247.20 71.88 256.30 72.39 267.00
  Q 72.70 273.58 72.93 279.11
  C 73.45 291.54 79.06 304.30 90.19 310.86
  C 93.86 313.03 96.88 314.34 98.05 319.02
  Q 99.11 323.26 99.59 327.37
  C 100.24 332.92 98.72 338.94 98.30 344.61
  C 98.02 348.46 100.23 352.29 101.63 355.74
  C 104.02 361.66 102.85 368.51 104.30 374.63
  C 106.26 382.91 114.21 389.14 122.13 392.34
  C 127.45 394.49 132.43 396.88 136.33 401.06
  C 140.69 405.73 146.42 408.46 152.82 409.66
  C 168.17 412.53 183.29 405.91 192.09 392.80
  Q 194.28 389.53 195.96 386.10
  A 6.82 6.77 88.0 0 1 198.61 383.24
  C 208.20 377.62 216.81 373.01 217.84 360.55
  Q 218.23 355.74 218.80 350.94
  C 219.32 346.53 221.49 342.48 222.69 338.10
  Q 224.39 331.84 223.79 326.56
  Q 223.63 325.23 224.59 324.17
  C 234.17 313.51 246.56 302.48 247.84 287.20
  Q 248.40 280.55 248.39 274.24
  Q 248.39 267.31 250.84 259.55
  Q 254.57 247.71 260.95 235.05
  Z
  M 304.71 349.23
  C 306.92 329.98 297.81 316.72 278.30 315.04
  Q 267.75 314.13 255.35 316.02
  Q 254.75 316.11 254.75 316.71
  L 254.75 371.74
  Q 254.75 372.31 255.31 372.40
  C 274.67 375.75 301.76 374.93 304.71 349.23
  Z
  M 329.25 336.15
  L 329.25 315.75
  Q 329.25 315.25 328.75 315.25
  L 316.75 315.25
  A 0.50 0.50 0.0 0 0 316.25 315.75
  L 316.25 372.50
  Q 316.25 373.00 316.75 373.00
  L 328.75 373.00
  A 0.50 0.50 0.0 0 0 329.25 372.50
  L 329.25 349.48
  Q 329.25 348.55 329.96 349.16
  C 337.57 355.66 344.03 364.02 349.78 372.50
  A 1.15 1.14 -16.9 0 0 350.73 373.00
  L 365.04 373.00
  A 0.37 0.37 0.0 0 0 365.36 372.43
  Q 354.55 354.89 340.44 342.21
  Q 340.04 341.85 340.42 341.46
  Q 352.81 328.92 363.94 315.75
  Q 364.38 315.24 363.71 315.24
  L 349.78 315.25
  A 1.65 1.62 -68.2 0 0 348.58 315.78
  L 329.69 336.32
  Q 329.25 336.81 329.25 336.15
  Z
  M 386.62 361.75
  A 0.37 0.37 0.0 0 1 386.25 361.38
  L 386.25 315.62
  A 0.37 0.37 0.0 0 0 385.88 315.25
  L 373.62 315.25
  A 0.37 0.37 0.0 0 0 373.25 315.62
  L 373.25 372.63
  A 0.37 0.37 0.0 0 0 373.62 373.00
  L 411.13 373.00
  A 0.37 0.37 0.0 0 0 411.50 372.63
  L 411.50 362.12
  A 0.37 0.37 0.0 0 0 411.13 361.75
  L 386.62 361.75
  Z"
/>
<path fill="#02b7e2" d="
  M 260.95 235.05
  Q 254.57 247.71 250.84 259.55
  Q 248.39 267.31 248.39 274.24
  Q 248.40 280.55 247.84 287.20
  C 246.56 302.48 234.17 313.51 224.59 324.17
  Q 223.63 325.23 223.79 326.56
  Q 224.39 331.84 222.69 338.10
  C 221.49 342.48 219.32 346.53 218.80 350.94
  Q 218.23 355.74 217.84 360.55
  C 216.81 373.01 208.20 377.62 198.61 383.24
  A 6.82 6.77 88.0 0 0 195.96 386.10
  Q 194.28 389.53 192.09 392.80
  C 183.29 405.91 168.17 412.53 152.82 409.66
  C 146.42 408.46 140.69 405.73 136.33 401.06
  C 132.43 396.88 127.45 394.49 122.13 392.34
  C 114.21 389.14 106.26 382.91 104.30 374.63
  C 102.85 368.51 104.02 361.66 101.63 355.74
  C 100.23 352.29 98.02 348.46 98.30 344.61
  C 98.72 338.94 100.24 332.92 99.59 327.37
  Q 99.11 323.26 98.05 319.02
  C 96.88 314.34 93.86 313.03 90.19 310.86
  C 79.06 304.30 73.45 291.54 72.93 279.11
  Q 72.70 273.58 72.39 267.00
  C 71.88 256.30 68.12 247.20 62.83 238.02
  C 54.76 224.04 46.71 210.04 40.48 195.00
  Q 26.34 160.89 34.42 124.82
  C 45.74 74.29 89.72 29.10 141.92 22.99
  Q 173.11 19.34 204.31 29.61
  C 249.45 44.46 280.39 86.15 288.99 131.91
  C 292.47 150.43 291.57 170.61 284.95 188.36
  Q 282.03 196.18 276.36 206.22
  Q 268.26 220.57 260.95 235.05
  Z
  M 212.74 256.22
  C 211.06 270.10 211.42 291.60 193.44 294.89
  Q 161.53 300.73 126.11 307.05
  Q 123.02 307.60 120.83 309.13
  C 116.16 312.40 114.04 320.01 118.65 324.12
  Q 121.25 326.44 124.90 325.79
  Q 160.50 319.50 201.02 312.06
  Q 211.63 310.11 218.54 302.01
  C 227.85 291.11 229.41 278.35 230.39 264.41
  Q 231.34 250.85 237.36 237.72
  Q 243.55 224.21 254.08 207.23
  Q 276.17 171.62 268.35 131.49
  C 261.12 94.34 233.67 63.15 198.91 48.72
  Q 192.25 45.95 186.13 44.00
  Q 179.65 41.93 170.65 41.31
  Q 139.95 39.21 114.07 51.71
  C 83.19 66.62 58.60 95.40 51.58 129.32
  Q 44.20 164.95 61.46 197.36
  Q 68.78 211.11 76.71 225.51
  Q 87.21 244.56 90.05 264.69
  C 90.84 270.31 94.30 276.11 100.30 277.07
  C 106.01 277.98 109.09 273.27 109.02 268.15
  Q 108.85 253.94 105.95 244.02
  C 103.80 236.65 99.90 228.43 96.11 221.57
  C 88.81 208.34 80.56 195.59 74.96 181.60
  Q 69.10 166.95 69.60 149.31
  C 70.30 124.08 80.18 101.01 98.75 84.37
  Q 117.57 67.50 141.74 62.26
  C 183.74 53.16 225.18 75.99 243.03 114.46
  Q 253.16 136.30 250.21 161.78
  Q 248.16 179.43 237.65 196.70
  Q 230.36 208.67 223.63 221.28
  C 217.83 232.15 214.23 243.93 212.74 256.22
  Z
  M 113.54 95.62
  C 101.44 105.32 94.44 119.47 90.90 134.29
  C 89.12 141.71 87.10 158.40 98.58 159.78
  C 103.49 160.36 107.15 156.89 107.92 152.48
  Q 109.30 144.60 111.13 136.25
  C 115.79 115.01 133.11 101.76 154.13 99.22
  C 160.17 98.49 165.04 97.79 168.56 93.54
  C 173.37 87.74 168.80 81.50 162.55 79.88
  Q 157.25 78.50 151.63 79.22
  Q 130.69 81.88 113.54 95.62
  Z
  M 125.82 332.95
  C 114.06 335.08 112.48 353.75 126.47 351.19
  Q 161.84 344.71 194.91 338.84
  C 200.42 337.87 204.41 334.22 204.94 328.61
  C 205.47 323.13 201.45 319.29 196.01 320.27
  Q 160.81 326.62 125.82 332.95
  Z
  M 123.50 364.03
  C 121.52 369.83 125.30 376.11 131.94 374.91
  Q 160.74 369.72 187.68 365.04
  Q 194.78 363.81 197.00 357.70
  Q 198.98 352.29 195.45 348.45
  C 193.28 346.07 190.11 346.22 187.19 346.74
  Q 158.92 351.81 132.80 356.37
  C 128.28 357.16 125.01 359.62 123.50 364.03
  Z
  M 170.22 388.48
  C 174.24 386.71 182.51 380.78 182.69 375.78
  Q 182.74 374.22 181.21 373.91
  Q 178.52 373.36 176.10 373.81
  Q 160.55 376.70 145.52 379.51
  Q 144.74 379.65 144.18 380.29
  A 1.06 1.05 48.8 0 0 144.10 381.58
  Q 153.85 395.69 170.22 388.48
  Z"
/>
<path fill="#ffffff" d="
  M 193.44 294.89
  C 211.42 291.60 211.06 270.10 212.74 256.22
  C 214.23 243.93 217.83 232.15 223.63 221.28
  Q 230.36 208.67 237.65 196.70
  Q 248.16 179.43 250.21 161.78
  Q 253.16 136.30 243.03 114.46
  C 225.18 75.99 183.74 53.16 141.74 62.26
  Q 117.57 67.50 98.75 84.37
  C 80.18 101.01 70.30 124.08 69.60 149.31
  Q 69.10 166.95 74.96 181.60
  C 80.56 195.59 88.81 208.34 96.11 221.57
  C 99.90 228.43 103.80 236.65 105.95 244.02
  Q 108.85 253.94 109.02 268.15
  C 109.09 273.27 106.01 277.98 100.30 277.07
  C 94.30 276.11 90.84 270.31 90.05 264.69
  Q 87.21 244.56 76.71 225.51
  Q 68.78 211.11 61.46 197.36
  Q 44.20 164.95 51.58 129.32
  C 58.60 95.40 83.19 66.62 114.07 51.71
  Q 139.95 39.21 170.65 41.31
  Q 179.65 41.93 186.13 44.00
  Q 192.25 45.95 198.91 48.72
  C 233.67 63.15 261.12 94.34 268.35 131.49
  Q 276.17 171.62 254.08 207.23
  Q 243.55 224.21 237.36 237.72
  Q 231.34 250.85 230.39 264.41
  C 229.41 278.35 227.85 291.11 218.54 302.01
  Q 211.63 310.11 201.02 312.06
  Q 160.50 319.50 124.90 325.79
  Q 121.25 326.44 118.65 324.12
  C 114.04 320.01 116.16 312.40 120.83 309.13
  Q 123.02 307.60 126.11 307.05
  Q 161.53 300.73 193.44 294.89
  Z"
/>
<path fill="#ffffff" d="
  M 90.90 134.29
  C 94.44 119.47 101.44 105.32 113.54 95.62
  Q 130.69 81.88 151.63 79.22
  Q 157.25 78.50 162.55 79.88
  C 168.80 81.50 173.37 87.74 168.56 93.54
  C 165.04 97.79 160.17 98.49 154.13 99.22
  C 133.11 101.76 115.79 115.01 111.13 136.25
  Q 109.30 144.60 107.92 152.48
  C 107.15 156.89 103.49 160.36 98.58 159.78
  C 87.10 158.40 89.12 141.71 90.90 134.29
  Z"
/>
<path fill="#000000" d="
  M 278.30 315.04
  C 297.81 316.72 306.92 329.98 304.71 349.23
  C 301.76 374.93 274.67 375.75 255.31 372.40
  Q 254.75 372.31 254.75 371.74
  L 254.75 316.71
  Q 254.75 316.11 255.35 316.02
  Q 267.75 314.13 278.30 315.04
  Z
  M 267.78 326.38
  L 267.72 361.70
  A 0.70 0.70 0.0 0 0 268.42 362.40
  L 275.19 362.41
  A 16.25 16.23 0.1 0 0 291.47 346.21
  L 291.47 341.95
  A 16.25 16.23 0.1 0 0 275.25 325.69
  L 268.48 325.68
  A 0.70 0.70 0.0 0 0 267.78 326.38
  Z"
/>
<path fill="#000000" d="
  M 329.25 336.15
  Q 329.25 336.81 329.69 336.32
  L 348.58 315.78
  A 1.65 1.62 -68.2 0 1 349.78 315.25
  L 363.71 315.24
  Q 364.38 315.24 363.94 315.75
  Q 352.81 328.92 340.42 341.46
  Q 340.04 341.85 340.44 342.21
  Q 354.55 354.89 365.36 372.43
  A 0.37 0.37 0.0 0 1 365.04 373.00
  L 350.73 373.00
  A 1.15 1.14 -16.9 0 1 349.78 372.50
  C 344.03 364.02 337.57 355.66 329.96 349.16
  Q 329.25 348.55 329.25 349.48
  L 329.25 372.50
  A 0.50 0.50 0.0 0 1 328.75 373.00
  L 316.75 373.00
  Q 316.25 373.00 316.25 372.50
  L 316.25 315.75
  A 0.50 0.50 0.0 0 1 316.75 315.25
  L 328.75 315.25
  Q 329.25 315.25 329.25 315.75
  L 329.25 336.15
  Z"
/>
<path fill="#000000" d="
  M 386.62 361.75
  L 411.13 361.75
  A 0.37 0.37 0.0 0 1 411.50 362.12
  L 411.50 372.63
  A 0.37 0.37 0.0 0 1 411.13 373.00
  L 373.62 373.00
  A 0.37 0.37 0.0 0 1 373.25 372.63
  L 373.25 315.62
  A 0.37 0.37 0.0 0 1 373.62 315.25
  L 385.88 315.25
  A 0.37 0.37 0.0 0 1 386.25 315.62
  L 386.25 361.38
  A 0.37 0.37 0.0 0 0 386.62 361.75
  Z"
/>
<path fill="#ffffff" d="
  M 126.47 351.19
  C 112.48 353.75 114.06 335.08 125.82 332.95
  Q 160.81 326.62 196.01 320.27
  C 201.45 319.29 205.47 323.13 204.94 328.61
  C 204.41 334.22 200.42 337.87 194.91 338.84
  Q 161.84 344.71 126.47 351.19
  Z"
/>
<path fill="#ffffff" d="
  M 267.78 326.38
  A 0.70 0.70 0.0 0 1 268.48 325.68
  L 275.25 325.69
  A 16.25 16.23 0.1 0 1 291.47 341.95
  L 291.47 346.21
  A 16.25 16.23 0.1 0 1 275.19 362.41
  L 268.42 362.40
  A 0.70 0.70 0.0 0 1 267.72 361.70
  L 267.78 326.38
  Z"
/>
<path fill="#ffffff" d="
  M 123.50 364.03
  C 125.01 359.62 128.28 357.16 132.80 356.37
  Q 158.92 351.81 187.19 346.74
  C 190.11 346.22 193.28 346.07 195.45 348.45
  Q 198.98 352.29 197.00 357.70
  Q 194.78 363.81 187.68 365.04
  Q 160.74 369.72 131.94 374.91
  C 125.30 376.11 121.52 369.83 123.50 364.03
  Z"
/>
<path fill="#ffffff" d="
  M 170.22 388.48
  Q 153.85 395.69 144.10 381.58
  A 1.06 1.05 48.8 0 1 144.18 380.29
  Q 144.74 379.65 145.52 379.51
  Q 160.55 376.70 176.10 373.81
  Q 178.52 373.36 181.21 373.91
  Q 182.74 374.22 182.69 375.78
  C 182.51 380.78 174.24 386.71 170.22 388.48
  Z"
/>
</svg>
